<svg width="397" height="160" viewBox="0 0 397 160" fill="none" xmlns="http://www.w3.org/2000/svg">
<g clip-path="url(#clip0_8097_5493)">
<rect width="397" height="160" rx="12" fill="url(#paint0_linear_8097_5493)"/>
<g style="mix-blend-mode:plus-darker" filter="url(#filter0_f_8097_5493)">
<path d="M325 168.5L137.511 2.074e-06L-24.9894 0C-24.4982 54.3333 -23.8104 164.1 -24.9894 168.5C-26.1684 172.9 192.842 170.333 325 168.5Z" fill="#B4F3FF"/>
</g>
<g style="mix-blend-mode:plus-darker" clip-path="url(#clip1_8097_5493)">
<g opacity="0.43">
<path d="M325.935 102.928C325.78 101.814 324.753 101.036 323.64 101.188C322.527 101.341 321.749 102.367 321.903 103.48L325.571 129.988C325.725 131.101 326.752 131.88 327.866 131.727C328.979 131.575 329.757 130.548 329.603 129.435L325.935 102.928Z" fill="#9EB2D9"/>
<path d="M343.272 90.7648L301.909 96.4316C296.7 97.1452 293.062 101.942 293.783 107.146L293.784 107.159C294.505 112.363 299.312 116.003 304.52 115.289L345.883 109.622C351.092 108.909 354.73 104.112 354.01 98.9076L354.008 98.8955C353.287 93.6914 348.48 90.0512 343.272 90.7648Z" fill="#657BA4"/>
<path opacity="0.65" d="M363.987 76.4935C363.987 76.4935 362.042 22.9825 316.021 29.2862C266.644 35.2602 279.103 88.1018 279.103 88.1018L363.982 76.4822L363.987 76.4935Z" fill="#9EB2D9"/>
<path d="M288.335 108.074C288.367 106.951 287.477 106.014 286.346 105.98C285.216 105.947 284.274 106.83 284.242 107.953L283.475 134.695C283.443 135.819 284.333 136.756 285.463 136.789C286.593 136.823 287.536 135.939 287.568 134.816L288.335 108.074Z" fill="#9EB2D9"/>
<path d="M367.34 123.654C367.676 124.727 368.819 125.325 369.892 124.991C370.966 124.657 371.564 123.516 371.228 122.443L363.227 96.9023C362.891 95.8296 361.749 95.231 360.675 95.5652C359.602 95.8995 359.004 97.04 359.34 98.1127L367.34 123.654Z" fill="#9EB2D9"/>
<path d="M368.482 72.8299L274.153 85.7574C267.075 86.7274 262.132 93.248 263.111 100.322C264.09 107.395 270.622 112.343 277.699 111.373L372.028 98.4455C379.106 97.4756 384.049 90.9551 383.07 83.8816C382.091 76.808 375.559 71.86 368.482 72.8299Z" fill="#8094BB"/>
<path d="M283.569 104.594C287.198 102.994 288.835 98.7589 287.226 95.136C285.618 91.5132 281.373 89.8739 277.745 91.4746C274.117 93.0754 272.48 97.31 274.088 100.933C275.696 104.556 279.941 106.195 283.569 104.594Z" fill="#9EB2D9"/>
<path d="M304.554 101.71C308.182 100.109 309.819 95.8742 308.211 92.2513C306.603 88.6284 302.358 86.9891 298.729 88.5899C295.101 90.1906 293.464 94.4252 295.072 98.0481C296.681 101.671 300.926 103.31 304.554 101.71Z" fill="#9EB2D9"/>
<path d="M325.843 98.7838C329.471 97.1831 331.108 92.9485 329.5 89.3256C327.892 85.7027 323.647 84.0634 320.018 85.6641C316.39 87.2648 314.753 91.4995 316.361 95.1224C317.97 98.7453 322.215 100.385 325.843 98.7838Z" fill="#9EB2D9"/>
<path d="M314.262 20.4212C316.526 19.4224 317.547 16.7804 316.544 14.5199C315.54 12.2595 312.892 11.2368 310.628 12.2355C308.364 13.2343 307.343 15.8763 308.346 18.1367C309.35 20.3972 311.998 21.42 314.262 20.4212Z" fill="#9EB2D9"/>
<path d="M347.118 95.8657C350.746 94.265 352.384 90.0304 350.775 86.4075C349.167 82.7846 344.922 81.1454 341.294 82.7461C337.666 84.3469 336.028 88.5814 337.637 92.2043C339.245 95.8272 343.49 97.4665 347.118 95.8657Z" fill="#9EB2D9"/>
<path d="M367.524 93.062C371.152 91.4613 372.789 87.2266 371.181 83.6038C369.572 79.9809 365.327 78.3417 361.699 79.9424C358.071 81.5432 356.434 85.7777 358.042 89.4006C359.65 93.0235 363.895 94.6628 367.524 93.062Z" fill="#9EB2D9"/>
<path d="M314.493 20.1517L311.88 20.5098L312.951 28.2455L315.565 27.8875L314.493 20.1517Z" fill="#9EB2D9"/>
<path d="M321.899 25.4369L306.176 27.5916C304.892 27.7675 303.996 28.9502 304.173 30.2332C304.351 31.5162 305.536 32.4136 306.819 32.2377L322.543 30.083C323.826 29.9071 324.723 28.7244 324.545 27.4414C324.368 26.1585 323.183 25.261 321.899 25.4369Z" fill="#657AA4"/>
</g>
</g>
<g style="mix-blend-mode:plus-darker">
<path d="M174.485 110.824C174.872 110.578 175.179 110.316 174.485 110.824V110.824Z" fill="#EBEDFF"/>
<path d="M243.555 108.137C245.954 97.1913 248.036 86.1756 248.32 75.0133C248.555 66.729 247.889 57.9996 244.24 50.3496C241.793 45.1913 238.072 40.9093 233.536 37.6866L243.258 24.4665C244.676 22.5491 244.259 19.899 242.322 18.4842C240.386 17.0693 237.717 17.4747 236.299 19.3921L225.877 33.5316C225.639 33.4794 225.48 33.4446 225.259 33.3136C221.427 31.8134 217.175 30.7162 212.977 30.1262L208.331 14.4995C207.669 12.2084 205.204 10.9253 202.977 11.5927C200.672 12.2427 199.387 14.6848 200.067 16.8971L203.961 29.8829C200.878 30.2801 197.965 31.0445 195.168 32.4124C187.326 36.3054 182.417 43.8952 179.051 51.6583C173.438 65.1186 171.204 79.4849 167.955 93.5461C166.867 98.5073 170.036 103.411 175.072 104.35L179.95 105.254C179.705 105.613 179.46 105.972 179.215 106.331C178.514 107.25 177.813 108.17 176.971 108.975C176.857 109.115 176.47 109.361 176.339 109.58C175.935 109.904 175.452 110.21 175.048 110.535C174.855 110.657 174.565 110.841 174.292 110.947C174.292 110.947 174.292 110.947 174.389 110.885C174.389 110.885 174.309 110.868 174.213 110.929C173.94 111.034 173.667 111.14 173.395 111.245C173.156 111.193 172.963 111.316 172.708 111.342C172.708 111.342 172.708 111.342 172.628 111.325C172.152 111.22 171.42 111.142 170.882 110.942C168.772 110.314 166.27 112.242 165.98 114.324C165.683 116.817 167.153 118.46 169.404 119.201C175.317 121.075 180.958 117.36 184.568 113.034C186.146 111.152 187.617 108.998 188.832 106.871L192.995 107.618C192.919 108.345 192.86 108.992 192.705 109.701C192.542 110.821 192.363 112.019 191.962 113.087C191.928 113.244 191.911 113.323 191.876 113.481C191.876 113.481 191.859 113.559 191.842 113.638C191.807 113.796 191.79 113.874 191.79 113.874C191.59 114.408 191.389 114.942 191.11 115.458C191.075 115.616 190.978 115.677 190.865 115.817C190.83 115.975 190.619 116.176 190.602 116.255C190.471 116.474 190.26 116.675 190.05 116.877C190.05 116.877 190.033 116.956 189.936 117.017C189.743 117.14 189.549 117.262 189.435 117.402C189.435 117.402 189.242 117.525 189.145 117.586C188.969 117.63 188.697 117.736 188.697 117.736C188.617 117.718 188.441 117.762 188.345 117.824C186.232 118.351 184.547 119.962 184.779 122.324C184.982 124.432 187.098 126.546 189.352 126.133C197.682 124.575 200.582 117.04 201.286 109.271L206.005 110.14C205.97 110.298 205.953 110.376 205.919 110.534C205.225 116.737 204.499 123.841 207.592 129.471C208.659 131.438 211.762 131.705 213.44 130.505C215.487 129.138 215.528 126.671 214.462 124.704C215.173 126.015 214.372 124.354 214.22 123.908C214.22 123.908 214.237 123.83 214.175 123.733C214.175 123.733 214.175 123.733 214.21 123.576C214.244 123.418 214.12 123.226 214.154 123.069C213.954 121.704 213.834 120.357 213.792 119.028C213.771 118.363 213.768 117.619 213.827 116.972C213.844 116.893 213.879 116.736 213.896 116.657C213.965 116.342 213.954 116.009 213.927 115.756C214.062 114.382 214.179 113.087 214.314 111.714L218.397 112.444C219.422 116.878 220.623 121.268 222.563 125.324C223.764 127.816 225.142 130.264 227.247 132.046C228.946 133.409 231.783 133.37 233.167 131.611C234.552 129.851 234.469 127.191 232.708 125.733C232.55 125.698 232.425 125.506 232.363 125.409C232.098 125.104 231.911 124.815 231.645 124.509C231.397 124.125 231.148 123.74 230.9 123.355C230.9 123.355 230.731 122.988 230.589 122.875C230.589 122.875 230.589 122.875 230.527 122.778C229.557 120.75 228.78 118.599 228.1 116.387C227.842 115.67 227.679 114.891 227.421 114.174L233.109 115.174C237.828 116.043 242.405 113.002 243.424 108.356L243.555 108.137ZM172.628 111.325C172.628 111.325 172.549 111.307 172.469 111.29C171.879 111.326 172.311 111.255 172.628 111.325ZM189.339 117.464C189.435 117.402 189.629 117.28 189.629 117.28C189.629 117.28 189.515 117.42 189.339 117.464ZM214.368 123.611C214.324 123.436 214.279 123.261 214.296 123.182C214.341 123.357 214.386 123.532 214.368 123.611ZM232.619 125.383C232.619 125.383 232.557 125.287 232.494 125.191C232.494 125.191 232.557 125.287 232.619 125.383ZM232.415 125.173C232.053 124.929 232.211 124.963 232.415 125.173V125.173Z" fill="#EBEDFF"/>
<path d="M205.396 58.2586C203.066 55.602 200.463 53.0507 197.387 51.1385C198.589 53.6302 200.176 55.8765 202.037 58.0175C200.584 58.1942 199.13 58.3708 197.643 58.7049C196.859 58.8633 196.155 59.0391 195.337 59.3549C196.845 59.6856 198.354 60.0162 199.914 60.1107C201.457 60.2838 202.955 60.2821 204.533 60.2978C204.771 60.35 205.061 60.166 205.271 59.9645C205.789 59.5003 205.786 58.7568 205.396 58.2586Z" fill="#96AAD2"/>
<path d="M232.138 59.2512C228.534 59.3691 225.075 60.3441 221.661 61.494C220.684 61.775 220.532 63.2273 221.513 63.6898C224.136 65.0077 226.891 66.1067 229.766 66.6545C228.341 65.1865 226.687 63.9987 224.92 62.9511C227.453 62.0209 229.942 60.9158 232.121 59.33L232.138 59.2512Z" fill="#96AAD2"/>
<path d="M220.253 69.4385L201.951 66.0043C201.554 65.9173 201.246 66.1801 201.16 66.5738C200.863 69.0672 200.418 77.5529 208.436 79.3107C208.436 79.3107 218.212 81.7838 220.653 70.269C220.722 69.954 220.473 69.5694 220.156 69.4998L220.253 69.4385Z" fill="#96AAD2"/>
</g>
<rect x="-16" y="116" width="423" height="55" fill="#1796CC"/>
<path d="M35.35 60.3H38.7V71.15H35.35V69.8H18.175V60.325H21.525V66.85H26.775V59H19.5V49.925H22.65V56.125H26.775V47.825H30.075V56.125H34.375V49.925H37.675V59H30.075V66.85H35.35V60.3ZM59.5 64.5H54.6C55.65 65.05 56.8 65.625 57.925 66.25C58.525 65.725 59.05 65.15 59.5 64.5ZM61.275 62.45L62.9 63.025C62.275 64.85 61.35 66.3 60.15 67.475C61.275 68.1 62.3 68.725 63.05 69.225L61.55 71.2C60.7 70.6 59.5 69.825 58.15 69.025C56.575 70 54.65 70.7 52.575 71.175C52.325 70.525 51.8 69.575 51.325 69.025C52.95 68.75 54.475 68.275 55.775 67.625C54.55 66.95 53.375 66.275 52.3 65.7L53.3 64.5H52.7V62.525H60.825L61.275 62.45ZM62.575 50.45L64.725 51.975C63.775 52.825 62.7 53.625 61.775 54.275C62.875 54.85 64.075 55.325 65.35 55.675C64.725 56.25 63.975 57.3 63.575 58.025C62.55 57.7 61.625 57.3 60.725 56.825V58.975C60.725 59.575 60.775 59.775 61.1 59.775H62.325C62.675 59.775 63.275 59.75 63.6 59.65C63.65 60.25 63.7 61.1 63.8 61.675C63.45 61.8 62.875 61.825 62.35 61.825H60.8C58.7 61.825 58.3 60.975 58.3 58.95V57.5H56C55.925 59.25 55.325 61.125 53.25 62.45C52.975 62.025 52.25 61.3 51.75 60.85V61.6H46.8C46.7 62.175 46.625 62.775 46.55 63.325H51.75C51.75 63.325 51.725 64 51.7 64.35C51.425 67.725 51.125 69.35 50.475 70C49.95 70.575 49.35 70.775 48.475 70.825C47.8 70.9 46.5 70.9 45.175 70.85C45.125 70.075 44.775 69.05 44.325 68.375C45.575 68.475 46.8 68.5 47.35 68.5C47.75 68.5 48.025 68.475 48.25 68.25C48.55 67.975 48.775 67.175 48.95 65.475H43.7C44.05 63.85 44.45 61.375 44.675 59.4H49.1V57.65H45.475V57.25C44.725 57.625 43.975 57.95 43.2 58.225C42.85 57.575 42.125 56.575 41.6 56.05C43.075 55.625 44.5 54.95 45.8 54.125C45.125 53.625 44.225 53.05 43.475 52.625L45.175 51.05C46.025 51.475 47.075 52.075 47.8 52.625C48.325 52.125 48.825 51.6 49.25 51.025H44.325V48.7H50.85L51.35 48.575L53.175 49.475C52.175 51.925 50.5 53.875 48.475 55.4H51.75V60.375C53.3 59.35 53.525 58.15 53.525 57.025V55.25H58.3C56.125 53.525 54.45 51.3 53.25 48.625L55.625 47.925C56 48.775 56.475 49.575 57.05 50.275C57.875 49.575 58.8 48.675 59.4 47.975L61.525 49.5C60.5 50.35 59.425 51.25 58.475 51.925C58.9 52.325 59.35 52.7 59.8 53.05C60.75 52.3 61.9 51.25 62.575 50.45ZM85.9 52.75L89.175 53.975C88.1 56.425 86.775 59.2 85.725 60.95L83.125 59.825C84.125 57.95 85.3 55 85.9 52.75ZM73.525 59.725L70.375 61C69.975 59.05 68.975 55.775 68.15 53.3L71.1 52.275C71.975 54.65 73.075 57.8 73.525 59.725ZM76.825 48H80.175C80.15 51.3 80.125 54.525 79.65 57.575C81.075 63.075 84.125 66.8 90.175 68.175C89.5 68.825 88.625 70.1 88.2 70.975C83.2 69.525 80.275 66.65 78.375 62.35C76.875 66.025 74.125 69.125 69 71.2C68.625 70.425 67.725 69.325 66.925 68.675C77.3 64.75 76.75 56.725 76.825 48ZM96.5 65.35H100.475V64.2H96.575C96.55 64.575 96.525 64.95 96.5 65.35ZM100.475 61.025H96.575V62.175H100.475V61.025ZM103.275 58.975V68.25C103.275 69.475 103.1 70.125 102.3 70.525C101.55 70.925 100.5 70.95 99.125 70.95C99.025 70.225 98.7 69.225 98.375 68.55C99.125 68.575 99.875 68.575 100.125 68.55C100.4 68.55 100.475 68.475 100.475 68.225V67.4H96.2C95.9 68.85 95.325 70.25 94.375 71.35C93.95 70.875 92.775 69.95 92.2 69.65C93.75 67.875 93.9 65.45 93.9 63.45V58.975H103.275ZM110.5 67.925V58.8H113.4V67.975C113.4 69.375 113.125 70.075 112.125 70.5C111.15 70.95 109.875 71 108.175 71C107.975 70.225 107.425 69.025 106.95 68.325C108.225 68.375 109.575 68.375 109.975 68.375C110.4 68.35 110.5 68.25 110.5 67.925ZM108.125 59.725V66.85H105.425V59.725H108.125ZM109.55 55.675H114.925V57.975H92.075V55.675H97.325C97.025 55.25 96.7 54.8 96.4 54.45L98.975 53.5L99.075 53.6C98.775 53.1 98.4 52.55 98.05 52.125L99.1 51.525H96.775C95.975 52.775 95.075 53.85 94.25 54.7C93.65 54.225 92.45 53.425 91.75 53.05C93.375 51.725 94.825 49.6 95.65 47.525L98.525 48.275C98.375 48.625 98.225 48.95 98.05 49.3H103.45V51.525H100.575C101.05 52.1 101.5 52.75 101.7 53.225L99.75 54.375C100.1 54.825 100.45 55.275 100.675 55.675H106.275C106.75 55 107.225 54.2 107.55 53.6L109.975 54.3C109.675 53.725 109.1 52.9 108.575 52.325L109.8 51.525H107.225C106.575 52.7 105.775 53.725 105 54.525C104.4 54.05 103.175 53.25 102.475 52.875C103.95 51.575 105.225 49.575 105.875 47.525L108.775 48.225C108.65 48.575 108.5 48.95 108.35 49.3H114.825V51.525H111.3C111.7 52 112.075 52.5 112.3 52.875L110.125 54.35L110.525 54.475C110.2 54.9 109.875 55.3 109.55 55.675ZM28.075 81V75.1H30.8V85.975C30.8 90.975 30.15 95.35 25.225 98.075C24.775 97.45 23.75 96.45 23.125 96C26.075 94.425 27.3 92.325 27.775 89.85C26.8 90.65 25.775 91.45 24.875 92.15L23.35 89.65C24.525 88.95 26.3 87.775 28.025 86.625L28.075 86.725V85.95V83.4L26.6 84.3C26.2 83.05 25.3 81.15 24.425 79.65V82.3H22.35V85.525L24.25 84.825L24.8 87.45C24 87.775 23.175 88.075 22.35 88.375V95.025C22.35 96.4 22.1 97.15 21.35 97.625C20.6 98.1 19.525 98.2 17.9 98.175C17.825 97.45 17.5 96.225 17.125 95.425C18.05 95.475 18.9 95.475 19.2 95.45C19.5 95.45 19.625 95.35 19.625 95.025V89.425L17.325 90.275L16.6 87.475C17.45 87.2 18.475 86.875 19.625 86.475V82.3H16.925V79.55H19.625V74.85H22.35V79.55H24.375L24.15 79.175L26.35 77.975C26.95 78.875 27.55 80 28.075 81ZM35.8 95.275H37.2C37.7 95.275 37.8 94.55 37.875 92.025C38.525 92.525 39.6 93.025 40.375 93.2C40.1 96.6 39.425 97.925 37.45 97.925H35.275C33.025 97.925 32.4 97.05 32.4 93.925V75.1H35.2V82.4C35.95 80.95 36.775 79.1 37.225 77.675L39.875 79.025C38.85 80.875 37.725 82.975 36.8 84.3L35.2 83.4V86.2L35.925 85.5C37.55 86.85 39.475 88.7 40.4 89.9L38.5 92C37.8 91 36.5 89.55 35.2 88.275V93.95C35.2 95.1 35.275 95.275 35.8 95.275ZM64.975 79.375L62.6 80.675C62.2 79.525 61.2 77.675 60.25 76.35L62.5 75.175C63.475 76.475 64.6 78.2 64.975 79.375ZM52.45 78.95V77.325H51.125V78.95H52.45ZM54.675 75.475V80.825H49.025V75.475H54.675ZM45.925 78.95V77.325H44.625V78.95H45.925ZM48.1 75.475V80.825H42.5V75.475H48.1ZM45.2 87.3V88.65H47.275V87.3H45.2ZM45.2 83.95V85.25H47.275V83.95H45.2ZM51.9 85.25V83.95H49.775V85.25H51.9ZM51.9 88.65V87.3H49.775V88.65H51.9ZM55.1 94.675H49.925V98.175H47.1V94.675H41.775V92.075H47.1V90.825H42.75V81.775H54.475V90.825H49.925V92.075H55.1V94.675ZM62.4 84.325L64.65 85.575C63.875 87.975 62.675 90.325 61.2 92.4C61.625 93.8 62.1 94.6 62.625 94.65C63.025 94.65 63.3 93.475 63.425 91.225C63.9 91.875 65.1 92.625 65.575 92.9C64.95 97.25 63.675 98.225 62.6 98.2C61.1 98.125 59.95 96.975 59.1 94.95C57.95 96.15 56.675 97.15 55.3 97.925C54.8 97.25 53.925 96.4 53.15 95.85C55.025 94.975 56.725 93.6 58.175 91.95C57.7 89.925 57.35 87.45 57.1 84.625L55.025 84.875L54.725 82.125L56.9 81.85C56.775 79.725 56.675 77.425 56.625 74.975H59.45C59.475 77.25 59.55 79.475 59.675 81.525L65 80.875L65.3 83.6L59.9 84.275C60.05 85.925 60.225 87.45 60.425 88.8C61.25 87.375 61.925 85.85 62.4 84.325ZM74.825 91.775L74.725 91.85C75.95 92.65 77.375 93.275 79 93.8C80.425 93.25 81.7 92.6 82.7 91.775H74.825ZM72.875 86.1V87.1H84.075V86.1H72.875ZM72.875 83.45V84.45H84.075V83.45H72.875ZM72.875 80.825V81.8H84.075V80.825H72.875ZM85.325 89.625L87.1 90.75C85.975 92.4 84.425 93.675 82.575 94.675C84.85 95.125 87.375 95.375 90.125 95.5C89.575 96.075 89 97.125 88.7 97.825C85.075 97.6 81.825 97.075 79.025 96.225C75.925 97.25 72.375 97.8 68.775 98.125C68.6 97.425 68.15 96.475 67.75 95.875C70.425 95.7 73.1 95.375 75.525 94.825C74.575 94.375 73.725 93.825 72.9 93.2C71.975 93.825 70.95 94.375 69.8 94.875C69.425 94.25 68.6 93.25 68 92.85C69.1 92.45 70.1 91.975 70.95 91.45C70.55 91 70.15 90.55 69.775 90.025L71.9 89.2C72.15 89.55 72.45 89.9 72.75 90.225C73.325 89.75 73.8 89.275 74.225 88.775H70.025V79.175H76.475C76.55 78.85 76.6 78.525 76.65 78.2H67.825V75.8H89.2V78.2H79.875C79.775 78.55 79.65 78.875 79.525 79.175H87.075V88.775H77.5C77.25 89.1 77.05 89.425 76.8 89.75H84.85L85.325 89.625ZM97.95 93.25H109.05V87.65H97.95V93.25ZM109.05 79.325H97.95V84.7H109.05V79.325ZM94.875 76.325H112.25V97.825H109.05V96.25H97.95V97.875H94.875V76.325ZM124.35 85.3L124.725 87.975C123.925 88.225 123.125 88.475 122.325 88.7V95.025C122.325 96.4 122.1 97.15 121.35 97.625C120.575 98.1 119.525 98.2 117.875 98.175C117.8 97.45 117.475 96.225 117.15 95.425C118.025 95.475 118.9 95.475 119.2 95.45C119.5 95.45 119.625 95.35 119.625 95.025V89.5C118.8 89.75 117.975 89.975 117.25 90.175L116.6 87.325C117.45 87.15 118.5 86.875 119.625 86.6V82.275H117V79.55H119.625V74.85H122.325V79.55H124.6V82.275H122.325V85.875L124.35 85.3ZM128.625 78.9V74.825H131.275V85.35C131.275 90.375 130.75 95.05 126.4 98.175C125.9 97.575 124.875 96.65 124.275 96.2C126 95 127.05 93.575 127.675 91.975C126.675 92.4 125.675 92.775 124.75 93.125L123.625 90.55C124.875 90.225 126.6 89.7 128.425 89.125C128.525 88.35 128.575 87.55 128.6 86.75H125.15V84.15H128.625V81.575H124.925V78.9H128.625ZM140.15 89.5V92.175H135.825V98.15H133.025V74.825H135.825V78.9H139.725V81.575H135.825V84.15H139.475V86.75H135.825V89.5H140.15ZM149.975 94.4H159.35V89.675H149.975V94.4ZM157.9 79.975H149.9C149.575 80.25 149.275 80.5 148.95 80.75C150.4 81.8 152.125 83.15 153.225 84.2C155.075 83 156.675 81.575 157.9 79.975ZM162.425 86.975V98.175H159.35V97.075H149.975V98.175H147V90.425C145.775 90.85 144.55 91.175 143.3 91.475C143.025 90.675 142.325 89.4 141.775 88.725C144.8 88.125 147.8 87.125 150.475 85.8C149.4 84.75 147.9 83.475 146.55 82.425C145.85 82.875 145.1 83.325 144.3 83.7C143.85 82.975 142.925 81.85 142.25 81.325C146.325 79.55 149.075 77.05 150.6 74.7L153.925 75.4C153.475 76.025 153.025 76.65 152.525 77.275H159.825L160.325 77.125L162.375 78.35C160.65 81.95 157.8 84.8 154.35 86.975H162.425Z" fill="url(#paint1_linear_8097_5493)"/>
<path d="M20.65 38C20.975 31.575 22.05 27.475 25.575 22.575H17.25V19.5H29.55V21.725C25.25 26.975 24.675 30.75 24.375 38H20.65ZM38.3467 29.825H48.5467V26.775H38.5217C38.4967 27.725 38.4467 28.775 38.3467 29.825ZM48.5467 20.9H38.5217V23.95H48.5467V20.9ZM51.6967 18V36.375C51.6967 38.175 51.2717 39.025 50.1217 39.525C48.9217 40.05 47.1717 40.1 44.5967 40.1C44.4217 39.225 43.8217 37.8 43.3467 36.975C45.0967 37.075 47.1967 37.05 47.7467 37.05C48.3467 37.05 48.5467 36.85 48.5467 36.325V32.7H37.8467C37.1967 35.5 35.9467 38.225 33.6217 40.175C33.1717 39.55 31.9717 38.45 31.3217 38.025C35.0967 34.8 35.4467 30.025 35.4467 26.225V18H51.6967ZM68.5217 21.925H61.6967V22.125C61.6967 22.6 61.6967 23.075 61.6467 23.6H67.4967C67.4967 23.6 67.4717 24.175 67.4467 24.5C67.3717 26.725 67.2467 28.05 66.9967 28.85C68.2467 28.35 69.4217 27.725 70.5217 27.025C69.6717 25.575 68.9967 23.825 68.5217 21.925ZM64.6467 25.9H61.4217C61.0717 28.025 60.3717 30.25 59.0217 31.925C58.5217 31.4 57.1967 30.45 56.5217 30.125C58.4967 27.725 58.7217 24.425 58.7217 22.1V19.375H68.0217C67.8967 18.55 67.8217 17.725 67.7717 16.85H70.7467C70.7967 17.725 70.8717 18.55 70.9967 19.375H73.8467C73.2967 18.825 72.5967 18.25 71.9967 17.875L73.9967 16.675C74.9967 17.25 76.1217 18.175 76.7467 18.825L75.9217 19.375H79.1217V21.925H71.5467C71.8967 23.1 72.3217 24.2 72.8217 25.125C73.6717 24.25 74.4217 23.275 74.9717 22.25L77.6467 23.025C76.7717 24.65 75.6467 26.075 74.3217 27.325C74.9967 28.025 75.6967 28.425 76.3717 28.425C76.9967 28.4 77.2217 27.7 77.3717 25.8C77.9717 26.35 78.9467 26.875 79.6967 27.125C79.2467 30.475 78.3467 31.25 76.2217 31.225C74.6717 31.225 73.2717 30.45 72.0467 29.175C70.9717 29.925 69.7967 30.625 68.6217 31.175C68.2717 30.65 67.4717 29.7 66.8967 29.125C66.8217 29.275 66.7467 29.425 66.6467 29.525C66.2467 30 65.7217 30.2 65.0967 30.25C64.5217 30.325 63.5467 30.35 62.4717 30.325C62.4467 29.625 62.2217 28.7 61.8717 28.1C62.6467 28.2 63.3217 28.2 63.6717 28.2C63.9217 28.2 64.1217 28.175 64.2967 27.975C64.4717 27.75 64.5717 27.175 64.6467 25.9ZM62.6217 33.775V37.05H64.5467V33.775H62.6217ZM69.2217 33.775H67.2717V37.05H69.2217V33.775ZM73.9217 33.775H71.9467V37.05H73.9217V33.775ZM76.8217 31.475V37.05H79.5967V39.7H56.8717V37.05H59.8467V31.475H76.8217ZM89.5467 33.775L89.4467 33.85C90.6717 34.65 92.0967 35.275 93.7217 35.8C95.1467 35.25 96.4217 34.6 97.4217 33.775H89.5467ZM87.5967 28.1V29.1H98.7967V28.1H87.5967ZM87.5967 25.45V26.45H98.7967V25.45H87.5967ZM87.5967 22.825V23.8H98.7967V22.825H87.5967ZM100.047 31.625L101.822 32.75C100.697 34.4 99.1467 35.675 97.2967 36.675C99.5717 37.125 102.097 37.375 104.847 37.5C104.297 38.075 103.722 39.125 103.422 39.825C99.7967 39.6 96.5467 39.075 93.7467 38.225C90.6467 39.25 87.0967 39.8 83.4967 40.125C83.3217 39.425 82.8717 38.475 82.4717 37.875C85.1467 37.7 87.8217 37.375 90.2467 36.825C89.2967 36.375 88.4467 35.825 87.6217 35.2C86.6967 35.825 85.6717 36.375 84.5217 36.875C84.1467 36.25 83.3217 35.25 82.7217 34.85C83.8217 34.45 84.8217 33.975 85.6717 33.45C85.2717 33 84.8717 32.55 84.4967 32.025L86.6217 31.2C86.8717 31.55 87.1717 31.9 87.4717 32.225C88.0467 31.75 88.5217 31.275 88.9467 30.775H84.7467V21.175H91.1967C91.2717 20.85 91.3217 20.525 91.3717 20.2H82.5467V17.8H103.922V20.2H94.5967C94.4967 20.55 94.3717 20.875 94.2467 21.175H101.797V30.775H92.2217C91.9717 31.1 91.7717 31.425 91.5217 31.75H99.5717L100.047 31.625Z" fill="#E5FF52"/>
<path d="M313.11 144.735V143.49H325.95V144.735H313.11ZM322.23 139.77V138.765H316.65V139.77H322.23ZM322.23 141.72V140.7H316.65V141.72H322.23ZM315.27 137.805H323.67V142.695H315.27V137.805ZM326.115 133.215V134.43H321.78C323.37 135.405 325.125 136.545 326.115 137.385L325.23 138.39C324.12 137.415 321.96 135.93 320.145 134.835V137.355H318.765V134.64C317.445 136.335 315.42 137.775 313.44 138.57C313.245 138.24 312.84 137.73 312.555 137.445C314.295 136.875 316.125 135.72 317.34 134.43H312.9V133.215H318.765V131.415H320.145V133.215H326.115ZM338.235 139.935V139.08H332.235V139.935H338.235ZM332.235 143.565H338.235V142.65H332.235V143.565ZM332.235 140.865V141.72H338.235V140.865H332.235ZM341.07 137.13H332.895C332.73 137.43 332.58 137.715 332.4 138H339.63V145.23H338.235V144.66H332.235V145.23H330.9V139.965C330.18 140.73 329.34 141.42 328.38 141.975C328.2 141.645 327.795 141.135 327.525 140.88C329.145 139.965 330.39 138.645 331.305 137.13H327.93V136.02H331.905C332.055 135.735 332.19 135.42 332.325 135.12H328.995V134.025H332.7C332.805 133.74 332.88 133.455 332.955 133.17C331.635 133.215 330.315 133.245 329.07 133.245C329.055 132.93 328.935 132.465 328.8 132.18C332.43 132.165 336.855 131.955 339.285 131.505L340.125 132.51C338.58 132.78 336.585 132.975 334.5 133.095C334.41 133.41 334.305 133.71 334.2 134.025H340.23V135.12H333.825C333.705 135.42 333.57 135.735 333.435 136.02H341.07V137.13ZM346.95 133.14L346.125 134.265C345.51 133.83 344.265 133.11 343.38 132.615L344.16 131.625C345.03 132.045 346.305 132.72 346.95 133.14ZM346.185 137.16L345.42 138.315C344.805 137.895 343.56 137.175 342.66 136.71L343.425 135.675C344.28 136.095 345.555 136.755 346.185 137.16ZM344.13 144.99L342.96 144.06C343.755 142.935 344.91 141.015 345.78 139.32L346.785 140.25C346.02 141.795 345.015 143.595 344.13 144.99ZM354.135 143.28V140.58H349.17V143.28H354.135ZM356.34 137.1H352.365V139.32H355.455V145.095H354.135V144.54H349.17V145.17H347.895V139.32H351.045V137.1H346.875V135.765H351.045V133.635C349.995 133.8 348.915 133.92 347.925 133.995C347.865 133.665 347.685 133.14 347.52 132.825C350.085 132.555 352.995 132.075 354.645 131.46L355.74 132.54C354.78 132.9 353.61 133.185 352.365 133.41V135.765H356.34V137.1ZM362.04 142.08V143.1C362.97 143.01 363.93 142.92 364.875 142.815C366.105 141.12 366.48 138.855 366.6 136.125H365.01V135H362.04V135.78H364.83V140.295H362.04V141.06H364.86V142.08H362.04ZM359.22 139.38H360.765V138.465H359.22V139.38ZM363.645 138.465H362.04V139.38H363.645V138.465ZM362.04 137.61H363.645V136.695H362.04V137.61ZM359.22 136.695V137.61H360.765V136.695H359.22ZM367.965 134.835H371.07C371.07 134.835 371.055 135.315 371.055 135.48C370.89 141.675 370.755 143.805 370.275 144.45C369.99 144.9 369.675 145.02 369.21 145.095C368.76 145.155 368.07 145.155 367.365 145.11C367.335 144.735 367.185 144.165 366.975 143.79C367.665 143.85 368.28 143.85 368.55 143.85C368.805 143.85 368.94 143.805 369.09 143.61C369.42 143.19 369.57 141.285 369.69 136.125H367.92C367.725 140.115 367.05 143.295 364.47 145.275C364.26 144.96 363.795 144.465 363.465 144.24C363.555 144.18 363.645 144.105 363.735 144.03C361.575 144.285 359.415 144.51 357.81 144.66L357.63 143.475C358.5 143.415 359.58 143.325 360.765 143.22V142.08H358.035V141.06H360.765V140.295H358.08V135.78H360.765V135H357.675V133.965H360.765V133.125C359.85 133.2 358.935 133.245 358.095 133.275C358.05 132.99 357.9 132.54 357.765 132.27C359.985 132.15 362.64 131.88 364.2 131.535L364.86 132.585C364.065 132.75 363.075 132.9 362.04 133.005V133.965H365.07V134.835H366.645C366.66 133.815 366.66 132.75 366.66 131.625H367.995C367.995 132.735 367.98 133.815 367.965 134.835Z" fill="white"/>
<path d="M162.205 138.825L160.69 139.41V143.64C160.69 144.33 160.555 144.705 160.15 144.915C159.745 145.14 159.16 145.185 158.2 145.185C158.17 144.855 158.005 144.255 157.825 143.895C158.425 143.91 158.98 143.91 159.145 143.895C159.34 143.895 159.415 143.85 159.415 143.64V139.89C158.845 140.115 158.305 140.325 157.81 140.49L157.465 139.155C158.005 138.99 158.68 138.765 159.415 138.495V135.63H157.645V134.34H159.415V131.445H160.69V134.34H162.055V135.63H160.69V138.045C161.095 137.88 161.53 137.73 161.95 137.565L162.205 138.825ZM164.44 135.87V131.565H165.715V138.075C165.715 141.03 165.325 143.535 162.28 145.14C162.07 144.84 161.62 144.36 161.305 144.15C163.345 143.115 164.08 141.69 164.335 139.98C163.6 140.535 162.85 141.105 162.205 141.57L161.47 140.4C162.22 139.965 163.33 139.215 164.44 138.465V138.06V136.41L163.495 136.95C163.27 136.095 162.625 134.805 162.01 133.845L163.06 133.275C163.6 134.055 164.125 135.075 164.44 135.87ZM168.73 143.775H169.87C170.2 143.775 170.26 143.34 170.305 141.735C170.605 141.96 171.115 142.215 171.49 142.29C171.355 144.3 171.04 145.035 169.975 145.035H168.535C167.335 145.035 167.005 144.615 167.005 143.01V131.565H168.325V136.365C168.865 135.51 169.555 134.115 169.93 133.11L171.175 133.755C170.56 134.835 169.855 136.11 169.285 136.935L168.325 136.41V138.195L168.67 137.835C169.69 138.675 170.875 139.8 171.475 140.535L170.575 141.525C170.08 140.895 169.195 139.935 168.325 139.125V143.025C168.325 143.67 168.385 143.775 168.73 143.775ZM186.22 134.13L185.08 134.775C184.825 134.07 184.15 132.99 183.505 132.21L184.555 131.655C185.215 132.42 185.92 133.44 186.22 134.13ZM179.065 133.98V132.765H177.895V133.98H179.065ZM180.115 131.835V134.91H176.89V131.835H180.115ZM175.195 133.98V132.765H174.07V133.98H175.195ZM176.245 131.835V134.91H173.065V131.835H176.245ZM174.355 138.705V139.755H175.945V138.705H174.355ZM174.355 136.665V137.685H175.945V136.665H174.355ZM178.765 137.685V136.665H177.13V137.685H178.765ZM178.765 139.755V138.705H177.13V139.755H178.765ZM180.43 142.965H177.205V145.185H175.87V142.965H172.585V141.735H175.87V140.805H173.2V135.6H179.98V140.805H177.205V141.735H180.43V142.965ZM184.93 137.01L185.98 137.61C185.5 139.05 184.78 140.46 183.88 141.72C184.21 142.845 184.6 143.52 185.05 143.55C185.32 143.565 185.515 142.785 185.62 141.375C185.845 141.675 186.415 142.035 186.64 142.14C186.31 144.6 185.665 145.23 185.035 145.215C184.09 145.17 183.385 144.36 182.86 142.95C182.08 143.805 181.195 144.525 180.265 145.035C180.025 144.72 179.62 144.3 179.245 144.06C180.445 143.49 181.525 142.605 182.44 141.525C182.14 140.265 181.915 138.72 181.75 136.95L180.31 137.13L180.145 135.825L181.645 135.645C181.555 134.355 181.495 132.96 181.45 131.505H182.785C182.8 132.885 182.86 134.235 182.95 135.48L186.31 135.075L186.475 136.365L183.055 136.785C183.175 138.015 183.325 139.125 183.505 140.07C184.105 139.11 184.585 138.075 184.93 137.01ZM191.245 133.62H189.43V136.635H191.245V133.62ZM189.43 141.03H191.245V137.865H189.43V141.03ZM192.55 132.36V142.275H189.43V143.55H188.14V132.36H192.55ZM193.63 140.955L194.785 140.325C195.445 141.075 196.27 142.11 196.66 142.8L195.43 143.535C195.085 142.86 194.29 141.75 193.63 140.955ZM201.34 134.355H197.755V136.065H200.89V137.28H199.675V138.72H201.28V139.95H199.675V143.64C199.675 144.36 199.51 144.735 199.015 144.93C198.49 145.155 197.71 145.17 196.555 145.17C196.495 144.795 196.285 144.24 196.09 143.865C196.93 143.895 197.755 143.895 197.995 143.895C198.235 143.88 198.31 143.82 198.31 143.61V139.95H192.865V138.72H198.31V137.28H193.405V136.065H196.375V134.355H192.82V133.11H196.375V131.4H197.755V133.11H201.34V134.355ZM207.565 133.065H204.73V134.1H207.565V133.065ZM204.73 136.2H207.565V135.09H204.73V136.2ZM208.885 137.235H204.73V145.185H203.35V132.015H208.885V137.235ZM211.405 136.23H214.33V135.09H211.405V136.23ZM214.33 133.065H211.405V134.1H214.33V133.065ZM207.94 142.755H210.985V141.51H207.94V142.755ZM210.985 139.32H207.94V140.49H210.985V139.32ZM215.74 132.015V143.445C215.74 144.24 215.575 144.69 215.035 144.93C214.51 145.155 213.685 145.17 212.425 145.17C212.365 144.795 212.17 144.195 211.99 143.805H207.94V144.555H206.665V138.27H212.29V143.76C213.025 143.79 213.745 143.775 213.985 143.775C214.255 143.76 214.33 143.685 214.33 143.43V137.265H210.07V132.015H215.74ZM224.5 136.02C223.81 136.02 223.24 135.51 223.24 134.775C223.24 134.04 223.81 133.515 224.5 133.515C225.19 133.515 225.76 134.04 225.76 134.775C225.76 135.51 225.19 136.02 224.5 136.02ZM224.5 143.28C223.81 143.28 223.24 142.77 223.24 142.05C223.24 141.3 223.81 140.79 224.5 140.79C225.19 140.79 225.76 141.3 225.76 142.05C225.76 142.77 225.19 143.28 224.5 143.28ZM234.895 144C235.09 139.965 235.795 137.385 237.925 134.415H232.735V132.96H239.845V134.01C237.25 137.25 236.845 139.68 236.665 144H234.895ZM240.735 146.7L244.905 132.03H246.105L241.935 146.7H240.735ZM247.689 144V142.575H250.104V134.895H248.124V133.8C249.159 133.605 249.894 133.35 250.524 132.96H251.829V142.575H253.989V144H247.689ZM260.699 139.755C259.334 139.755 258.674 138.375 257.729 138.375C257.249 138.375 256.829 138.69 256.454 139.38L255.524 138.705C256.199 137.565 256.994 137.115 257.759 137.115C259.109 137.115 259.784 138.495 260.729 138.495C261.209 138.495 261.614 138.18 261.989 137.49L262.934 138.18C262.244 139.29 261.449 139.755 260.699 139.755ZM266.404 144C266.599 139.965 267.304 137.385 269.434 134.415H264.244V132.96H271.354V134.01C268.759 137.25 268.354 139.68 268.174 144H266.404ZM272.243 146.7L276.413 132.03H277.613L273.443 146.7H272.243ZM278.568 144V142.995C281.823 140.115 283.503 137.97 283.503 136.155C283.503 134.955 282.858 134.13 281.628 134.13C280.758 134.13 280.038 134.685 279.453 135.36L278.478 134.4C279.423 133.38 280.398 132.75 281.838 132.75C283.863 132.75 285.168 134.07 285.168 136.065C285.168 138.195 283.473 140.4 281.133 142.635C281.703 142.575 282.393 142.53 282.933 142.53H285.693V144H278.568ZM290.498 138.6C291.173 138.6 291.938 138.21 292.598 137.25C292.433 135.075 291.608 134.085 290.408 134.085C289.463 134.085 288.713 134.94 288.713 136.38C288.713 137.79 289.343 138.6 290.498 138.6ZM287.288 143.025L288.218 141.96C288.653 142.455 289.328 142.785 290.033 142.785C291.368 142.785 292.523 141.705 292.628 138.555C291.983 139.35 291.038 139.845 290.198 139.845C288.353 139.845 287.108 138.69 287.108 136.38C287.108 134.19 288.608 132.75 290.393 132.75C292.508 132.75 294.218 134.46 294.218 138.105C294.218 142.455 292.238 144.195 290.108 144.195C288.833 144.195 287.933 143.685 287.288 143.025Z" fill="white"/>
<path d="M20.95 133.14L20.125 134.265C19.51 133.83 18.265 133.11 17.38 132.615L18.16 131.625C19.03 132.045 20.305 132.72 20.95 133.14ZM20.185 137.16L19.42 138.315C18.805 137.895 17.56 137.175 16.66 136.71L17.425 135.675C18.28 136.095 19.555 136.755 20.185 137.16ZM18.13 144.99L16.96 144.06C17.755 142.935 18.91 141.015 19.78 139.32L20.785 140.25C20.02 141.795 19.015 143.595 18.13 144.99ZM28.135 143.28V140.58H23.17V143.28H28.135ZM30.34 137.1H26.365V139.32H29.455V145.095H28.135V144.54H23.17V145.17H21.895V139.32H25.045V137.1H20.875V135.765H25.045V133.635C23.995 133.8 22.915 133.92 21.925 133.995C21.865 133.665 21.685 133.14 21.52 132.825C24.085 132.555 26.995 132.075 28.645 131.46L29.74 132.54C28.78 132.9 27.61 133.185 26.365 133.41V135.765H30.34V137.1ZM36.04 142.08V143.1C36.97 143.01 37.93 142.92 38.875 142.815C40.105 141.12 40.48 138.855 40.6 136.125H39.01V135H36.04V135.78H38.83V140.295H36.04V141.06H38.86V142.08H36.04ZM33.22 139.38H34.765V138.465H33.22V139.38ZM37.645 138.465H36.04V139.38H37.645V138.465ZM36.04 137.61H37.645V136.695H36.04V137.61ZM33.22 136.695V137.61H34.765V136.695H33.22ZM41.965 134.835H45.07C45.07 134.835 45.055 135.315 45.055 135.48C44.89 141.675 44.755 143.805 44.275 144.45C43.99 144.9 43.675 145.02 43.21 145.095C42.76 145.155 42.07 145.155 41.365 145.11C41.335 144.735 41.185 144.165 40.975 143.79C41.665 143.85 42.28 143.85 42.55 143.85C42.805 143.85 42.94 143.805 43.09 143.61C43.42 143.19 43.57 141.285 43.69 136.125H41.92C41.725 140.115 41.05 143.295 38.47 145.275C38.26 144.96 37.795 144.465 37.465 144.24C37.555 144.18 37.645 144.105 37.735 144.03C35.575 144.285 33.415 144.51 31.81 144.66L31.63 143.475C32.5 143.415 33.58 143.325 34.765 143.22V142.08H32.035V141.06H34.765V140.295H32.08V135.78H34.765V135H31.675V133.965H34.765V133.125C33.85 133.2 32.935 133.245 32.095 133.275C32.05 132.99 31.9 132.54 31.765 132.27C33.985 132.15 36.64 131.88 38.2 131.535L38.86 132.585C38.065 132.75 37.075 132.9 36.04 133.005V133.965H39.07V134.835H40.645C40.66 133.815 40.66 132.75 40.66 131.625H41.995C41.995 132.735 41.98 133.815 41.965 134.835ZM49.27 139.08V140.37H51.61V139.08H49.27ZM51.61 134.52H49.27V135.645H51.61V134.52ZM49.27 136.74V137.985H51.61V136.74H49.27ZM53.92 140.37V141.585H46.615V140.37H48.01V134.52H46.795V133.305H48.01V131.58H49.27V133.305H51.61V131.58H52.9V133.305H53.98V134.52H52.9V140.37H53.92ZM48.58 141.825L49.9 142.185C49.36 143.31 48.49 144.465 47.68 145.2C47.44 144.96 46.9 144.57 46.57 144.375C47.38 143.73 48.145 142.77 48.58 141.825ZM50.74 142.365L51.805 141.78C52.39 142.455 53.11 143.37 53.425 143.97L52.3 144.645C52 144.045 51.31 143.07 50.74 142.365ZM55.885 138.93H58.555V136.74H55.915V137.535C55.915 137.97 55.915 138.45 55.885 138.93ZM58.555 133.395H55.915V135.51H58.555V133.395ZM59.905 132.135V143.535C59.905 144.27 59.74 144.675 59.275 144.885C58.825 145.125 58.105 145.155 56.995 145.14C56.95 144.78 56.77 144.165 56.59 143.82C57.295 143.85 58.045 143.835 58.24 143.835C58.465 143.82 58.555 143.76 58.555 143.52V140.19H55.795C55.63 141.975 55.27 143.88 54.415 145.245C54.19 144.99 53.605 144.585 53.305 144.45C54.49 142.485 54.595 139.68 54.595 137.535V132.135H59.905ZM66.565 133.065H63.73V134.1H66.565V133.065ZM63.73 136.2H66.565V135.09H63.73V136.2ZM67.885 137.235H63.73V145.185H62.35V132.015H67.885V137.235ZM70.405 136.23H73.33V135.09H70.405V136.23ZM73.33 133.065H70.405V134.1H73.33V133.065ZM66.94 142.755H69.985V141.51H66.94V142.755ZM69.985 139.32H66.94V140.49H69.985V139.32ZM74.74 132.015V143.445C74.74 144.24 74.575 144.69 74.035 144.93C73.51 145.155 72.685 145.17 71.425 145.17C71.365 144.795 71.17 144.195 70.99 143.805H66.94V144.555H65.665V138.27H71.29V143.76C72.025 143.79 72.745 143.775 72.985 143.775C73.255 143.76 73.33 143.685 73.33 143.43V137.265H69.07V132.015H74.74ZM89.86 133.065V134.295H81.265V133.065H84.925C84.835 132.57 84.67 131.955 84.505 131.49L85.81 131.265C86.02 131.835 86.23 132.54 86.335 133.065H89.86ZM84.325 136.815L83.08 137.205C82.975 136.545 82.645 135.51 82.27 134.745L83.44 134.385C83.845 135.15 84.19 136.155 84.325 136.815ZM79.87 131.445L81.145 131.865C80.755 132.945 80.23 134.04 79.66 135.09V145.17H78.34V137.22C77.965 137.73 77.59 138.195 77.2 138.63C77.065 138.3 76.675 137.565 76.45 137.235C77.8 135.825 79.09 133.65 79.87 131.445ZM87.715 140.865H83.23V143.355H87.715V140.865ZM81.91 145.17V139.62H89.08V145.11H87.715V144.585H83.23V145.17H81.91ZM87.655 137.22H90.34V138.48H80.68V137.22H86.35C86.725 136.41 87.19 135.195 87.43 134.325L88.75 134.67C88.42 135.525 88.03 136.485 87.655 137.22ZM101.935 139.605L100.84 140.04C100.75 139.815 100.63 139.56 100.48 139.275C96.715 139.635 96.19 139.71 95.845 139.875C95.8 139.635 95.605 139.035 95.47 138.705C95.83 138.66 96.205 138.375 96.7 137.955C96.97 137.76 97.525 137.265 98.155 136.635C96.7 136.74 96.37 136.815 96.145 136.905C96.07 136.65 95.875 136.08 95.755 135.78C95.965 135.735 96.19 135.54 96.43 135.27C96.61 135.105 97.015 134.58 97.405 133.965H92.11V132.69H97.975C97.795 132.33 97.57 131.97 97.375 131.655L98.77 131.325C99.07 131.745 99.415 132.285 99.625 132.69H105.055V133.965H98.83C98.44 134.52 98.02 135.09 97.585 135.555L99.25 135.48C99.595 135.09 99.925 134.67 100.24 134.265L101.32 134.895C100.225 136.2 98.965 137.43 97.72 138.435L99.865 138.27C99.67 137.955 99.46 137.67 99.25 137.4L100.27 137.01C100.93 137.805 101.65 138.855 101.935 139.605ZM105.01 139.23L103.99 140.07C103.36 139.485 102.085 138.6 101.065 138L102.04 137.235C103.03 137.79 104.335 138.645 105.01 139.23ZM103.3 134.4L104.47 135.09C103.81 135.78 102.955 136.47 102.295 136.95L101.275 136.29C101.92 135.795 102.805 135 103.3 134.4ZM95.455 136.095L94.465 136.935C94 136.425 93.025 135.705 92.23 135.21L93.175 134.445C93.955 134.91 94.96 135.6 95.455 136.095ZM95.5 137.22L95.77 138.255C94.66 138.855 93.475 139.485 92.5 139.95L91.795 138.825C92.74 138.465 94.15 137.85 95.5 137.22ZM105.22 140.925V142.215H99.235V145.185H97.765V142.215H91.78V140.925H97.765V139.8H99.235V140.925H105.22ZM110.275 134.1H113.485C113.485 134.1 113.47 134.595 113.47 134.79C113.2 141.195 112.975 143.445 112.435 144.15C112.12 144.585 111.82 144.735 111.37 144.81C110.965 144.87 110.35 144.87 109.705 144.84C109.69 144.435 109.525 143.82 109.3 143.415C109.885 143.46 110.41 143.475 110.68 143.475C110.905 143.475 111.04 143.415 111.205 143.205C111.58 142.755 111.835 140.775 112.045 135.465H110.215C110.035 139.215 109.495 142.83 107.665 145.155C107.41 144.81 106.93 144.39 106.555 144.165C108.235 142.125 108.7 138.855 108.835 135.465H106.915V134.1H108.88C108.895 133.215 108.895 132.315 108.895 131.46H110.305C110.305 132.315 110.29 133.215 110.275 134.1ZM115.795 142.515H118.3V134.55H115.795V142.515ZM114.415 133.2H119.74V144.81H118.3V143.85H115.795V144.93H114.415V133.2ZM134.86 133.065V134.295H126.265V133.065H129.925C129.835 132.57 129.67 131.955 129.505 131.49L130.81 131.265C131.02 131.835 131.23 132.54 131.335 133.065H134.86ZM129.325 136.815L128.08 137.205C127.975 136.545 127.645 135.51 127.27 134.745L128.44 134.385C128.845 135.15 129.19 136.155 129.325 136.815ZM124.87 131.445L126.145 131.865C125.755 132.945 125.23 134.04 124.66 135.09V145.17H123.34V137.22C122.965 137.73 122.59 138.195 122.2 138.63C122.065 138.3 121.675 137.565 121.45 137.235C122.8 135.825 124.09 133.65 124.87 131.445ZM132.715 140.865H128.23V143.355H132.715V140.865ZM126.91 145.17V139.62H134.08V145.11H132.715V144.585H128.23V145.17H126.91ZM132.655 137.22H135.34V138.48H125.68V137.22H131.35C131.725 136.41 132.19 135.195 132.43 134.325L133.75 134.67C133.42 135.525 133.03 136.485 132.655 137.22ZM137.995 140.475L137.755 134.475L137.71 132.705H139.45L139.39 134.475L139.15 140.475H137.995ZM138.565 144.195C137.92 144.195 137.425 143.7 137.425 142.995C137.425 142.29 137.92 141.765 138.565 141.765C139.225 141.765 139.735 142.29 139.735 142.995C139.735 143.7 139.225 144.195 138.565 144.195Z" fill="#C6FF9A"/>
<path d="M377 133L382 138.5L377 144" stroke="white" stroke-linecap="round" stroke-linejoin="round"/>
</g>
<defs>
<filter id="filter0_f_8097_5493" x="-44.5941" y="-19.6" width="389.194" height="210.13" filterUnits="userSpaceOnUse" color-interpolation-filters="sRGB">
<feFlood flood-opacity="0" result="BackgroundImageFix"/>
<feBlend mode="normal" in="SourceGraphic" in2="BackgroundImageFix" result="shape"/>
<feGaussianBlur stdDeviation="9.8" result="effect1_foregroundBlur_8097_5493"/>
</filter>
<linearGradient id="paint0_linear_8097_5493" x1="233.5" y1="29.5" x2="232.5" y2="215" gradientUnits="userSpaceOnUse">
<stop stop-color="#85E7F9"/>
<stop offset="0.764423" stop-color="#F7FFC9"/>
<stop offset="0.95416" stop-color="#FCFFED"/>
</linearGradient>
<linearGradient id="paint1_linear_8097_5493" x1="173.5" y1="90" x2="93.1988" y2="148.259" gradientUnits="userSpaceOnUse">
<stop stop-color="white"/>
<stop offset="1" stop-color="white"/>
</linearGradient>
<clipPath id="clip0_8097_5493">
<rect width="397" height="160" rx="12" fill="white"/>
</clipPath>
<clipPath id="clip1_8097_5493">
<rect width="132" height="136" fill="white" transform="translate(257 6)"/>
</clipPath>
</defs>
</svg>
