<svg width="22" height="25" viewBox="0 0 22 25" fill="none" xmlns="http://www.w3.org/2000/svg">
<path d="M11.0009 25C10.8754 25 10.7483 24.9681 10.6349 24.9043L0.407248 19.2264C0.15637 19.0864 0 18.8169 0 18.5244V6.47557C0 6.18131 0.15637 5.91186 0.407248 5.77359L10.6349 0.0957243C10.8634 -0.0319081 11.1383 -0.0319081 11.3669 0.0957243L21.5945 5.77359C21.8454 5.91364 22.0017 6.18308 22.0017 6.47557V18.5244C22.0017 18.8187 21.8454 19.0881 21.5945 19.2264L11.3669 24.9043C11.2517 24.9681 11.1263 25 11.0009 25ZM1.54651 18.0476L11.0009 23.2965L20.4552 18.0476V6.95242L11.0009 1.70354L1.54651 6.95242V18.0476Z" fill="#E6CEFF"/>
<path d="M1 6.8559V17.855L11 23.3555L21 17.855V6.8559L11 1.35547L1 6.8559Z" fill="url(#paint0_linear_7061_1023)"/>
<path d="M4 8.76693V16.3008L10.7858 20.0677L17.5715 16.3008V8.76693L10.7858 5L4 8.76693Z" fill="#782EA9"/>
<path d="M10.79 16.14C9.61 16.14 8.78 15.73 8.24 15.1L9.06 13.98C9.51 14.41 10.03 14.7 10.61 14.7C11.3 14.7 11.75 14.41 11.75 13.85C11.75 13.21 11.41 12.83 9.85 12.83V11.58C11.12 11.58 11.52 11.19 11.52 10.6C11.52 10.09 11.22 9.81 10.67 9.81C10.17 9.81 9.79 10.04 9.34 10.43L8.44 9.34C9.13 8.76 9.87 8.42 10.75 8.42C12.29 8.42 13.3 9.14 13.3 10.47C13.3 11.21 12.9 11.79 12.1 12.11V12.16C12.93 12.41 13.54 13.01 13.54 13.97C13.54 15.36 12.27 16.14 10.79 16.14Z" fill="#E6CEFF"/>
<defs>
<linearGradient id="paint0_linear_7061_1023" x1="5.16835" y1="21.6142" x2="14.2868" y2="7.75707" gradientUnits="userSpaceOnUse">
<stop stop-color="#D6A8FF"/>
<stop offset="1" stop-color="#B83FFE"/>
</linearGradient>
</defs>
</svg>
