<svg width="22" height="25" viewBox="0 0 22 25" fill="none" xmlns="http://www.w3.org/2000/svg">
<path d="M11.0009 25C10.8754 25 10.7483 24.9681 10.6349 24.9043L0.407248 19.2264C0.15637 19.0864 0 18.8169 0 18.5244V6.47557C0 6.18131 0.15637 5.91186 0.407248 5.77359L10.6349 0.0957243C10.8634 -0.0319081 11.1383 -0.0319081 11.3669 0.0957243L21.5945 5.77359C21.8454 5.91364 22.0017 6.18308 22.0017 6.47557V18.5244C22.0017 18.8187 21.8454 19.0881 21.5945 19.2264L11.3669 24.9043C11.2517 24.9681 11.1263 25 11.0009 25ZM1.54651 18.0476L11.0009 23.2965L20.4552 18.0476V6.95242L11.0009 1.70354L1.54651 6.95242V18.0476Z" fill="#CEFFD5"/>
<path d="M1 6.8559V17.855L11 23.3555L21 17.855V6.8559L11 1.35547L1 6.8559Z" fill="url(#paint0_linear_7057_1524)"/>
<path d="M4 8.76693V16.3008L10.7858 20.0677L17.5715 16.3008V8.76693L10.7858 5L4 8.76693Z" fill="#318652"/>
<path d="M8.42 16V14.98C10.28 13.29 11.53 11.94 11.53 10.86C11.53 10.18 11.15 9.81 10.56 9.81C10.05 9.81 9.65 10.15 9.3 10.53L8.33 9.57C9.06 8.8 9.74 8.42 10.8 8.42C12.24 8.42 13.24 9.34 13.24 10.76C13.24 12.04 12.14 13.45 11 14.6C11.37 14.55 11.88 14.5 12.21 14.5H13.58V16H8.42Z" fill="#CEFFD5"/>
<defs>
<linearGradient id="paint0_linear_7057_1524" x1="5.16835" y1="21.6142" x2="14.2868" y2="7.75707" gradientUnits="userSpaceOnUse">
<stop stop-color="#67FFA1"/>
<stop offset="1" stop-color="#4BBE3B"/>
</linearGradient>
</defs>
</svg>
