<svg width="74" height="74" viewBox="0 0 74 74" fill="none" xmlns="http://www.w3.org/2000/svg">
<path d="M37 24.6654V33.9154M37 43.1654V43.1962M55.5 12.332C57.9533 12.332 60.306 13.3066 62.0407 15.0413C63.7754 16.776 64.75 19.1288 64.75 21.582V46.2487C64.75 48.7019 63.7754 51.0547 62.0407 52.7894C60.306 54.5241 57.9533 55.4987 55.5 55.4987H40.0833L24.6667 64.7487V55.4987H18.5C16.0467 55.4987 13.694 54.5241 11.9593 52.7894C10.2246 51.0547 9.25 48.7019 9.25 46.2487V21.582C9.25 19.1288 10.2246 16.776 11.9593 15.0413C13.694 13.3066 16.0467 12.332 18.5 12.332H55.5Z" stroke="#FF3F63" stroke-width="6" stroke-linecap="round" stroke-linejoin="round"/>
</svg>
