<svg width="64" height="64" viewBox="0 0 64 64" fill="none" xmlns="http://www.w3.org/2000/svg">
<path d="M57.886 30.1141L36.5527 8.78076C36.1797 8.40794 35.7046 8.15406 35.1874 8.05121C34.6702 7.94836 34.1341 8.00117 33.6469 8.20296C33.1597 8.40474 32.7433 8.74645 32.4502 9.18488C32.1572 9.6233 32.0008 10.1388 32.0007 10.6661V20.1194C24.7161 20.7935 17.9453 24.1617 13.0132 29.5648C8.08106 34.968 5.34271 42.0171 5.33398 49.3328V53.3328C5.33441 53.8863 5.50708 54.426 5.82805 54.877C6.14902 55.328 6.60238 55.6679 7.12525 55.8496C7.64812 56.0313 8.21458 56.0458 8.74606 55.8911C9.27754 55.7364 9.7477 55.4201 10.0913 54.9861C12.7042 51.8798 15.9098 49.3251 19.5209 47.4712C23.132 45.6174 27.0762 44.5015 31.1233 44.1888C31.2567 44.1728 31.59 44.1461 32.0007 44.1194V53.3328C32.0008 53.8601 32.1572 54.3756 32.4502 54.814C32.7433 55.2524 33.1597 55.5941 33.6469 55.7959C34.1341 55.9977 34.6702 56.0505 35.1874 55.9477C35.7046 55.8448 36.1797 55.5909 36.5527 55.2181L57.886 33.8848C58.3859 33.3847 58.6667 32.7065 58.6667 31.9994C58.6667 31.2923 58.3859 30.6142 57.886 30.1141ZM37.334 46.8954V41.3328C37.334 40.6255 37.053 39.9472 36.5529 39.4471C36.0528 38.9471 35.3746 38.6661 34.6673 38.6661C33.9873 38.6661 31.2113 38.7994 30.502 38.8928C23.3148 39.5542 16.4734 42.2849 10.806 46.7541C11.4493 40.8726 14.2394 35.435 18.6421 31.4825C23.0448 27.53 28.7507 25.3404 34.6673 25.3328C35.3746 25.3328 36.0528 25.0518 36.5529 24.5517C37.053 24.0516 37.334 23.3733 37.334 22.6661V17.1034L52.23 31.9994L37.334 46.8954Z" fill="white"/>
</svg>
