<svg width="150" height="149" viewBox="0 0 150 149" fill="none" xmlns="http://www.w3.org/2000/svg">
<path d="M76.4908 103.972C76.4917 102.812 75.5509 101.892 74.3893 101.915C73.2278 101.938 72.2855 102.897 72.2846 104.056L72.2646 131.662C72.2638 132.821 73.2047 133.742 74.3663 133.719C75.5278 133.695 76.47 132.737 76.4708 131.577L76.4908 103.972Z" fill="#303B52"/>
<path d="M94.6222 94.0921L53.0636 94.3241C47.8303 94.3533 43.5061 98.6682 43.4053 103.962L43.405 103.974C43.3042 109.268 47.4648 113.535 52.6981 113.506L94.2567 113.274C99.4899 113.245 103.814 108.93 103.915 103.636L103.915 103.624C104.016 98.3304 99.8554 94.0629 94.6222 94.0921Z" fill="#3B4A68"/>
<path opacity="0.65" d="M116.949 81.6856C116.949 81.6856 123.494 27.0577 77.2082 27.426C27.6717 27.019 31.5799 82.3461 31.5799 82.3461L116.946 81.6736L116.949 81.6856Z" fill="#576A91"/>
<path d="M38.0495 103.871C38.2571 102.725 37.5867 101.657 36.5521 101.485C35.5175 101.313 34.5104 102.103 34.3028 103.248L29.3588 130.529C29.1511 131.674 29.8216 132.742 30.8562 132.914C31.8908 133.086 32.8979 132.297 33.1055 131.151L38.0495 103.871Z" fill="#303B52"/>
<path d="M113.078 131.077C113.244 132.221 114.297 132.987 115.429 132.789C116.562 132.591 117.344 131.502 117.178 130.359L113.211 103.124C113.044 101.98 111.991 101.214 110.859 101.412C109.727 101.611 108.944 102.699 109.11 103.843L113.078 131.077Z" fill="#303B52"/>
<path d="M122.063 79.3308L27.396 79.7824C20.2932 79.8163 14.4287 85.6372 14.2975 92.7838C14.1662 99.9303 19.8178 105.696 26.9206 105.662L121.587 105.211C128.69 105.177 134.554 99.356 134.686 92.2094C134.817 85.0629 129.165 79.2969 122.063 79.3308Z" fill="#303B52"/>
<path d="M33.8573 99.6084C37.6872 98.4555 39.9718 94.3596 38.9601 90.46C37.9484 86.5604 34.0235 84.3338 30.1935 85.4867C26.3636 86.6396 24.0789 90.7354 25.0906 94.635C26.1024 98.5346 30.0273 100.761 33.8573 99.6084Z" fill="#455471"/>
<path d="M54.8495 99.6358C58.6794 98.4829 60.964 94.3869 59.9523 90.4873C58.9406 86.5878 55.0157 84.3612 51.1857 85.5141C47.3557 86.667 45.0711 90.7628 46.0828 94.6623C47.0945 98.5619 51.0195 100.789 54.8495 99.6358Z" fill="#455471"/>
<path d="M76.1483 99.6612C79.9783 98.5082 82.2629 94.4124 81.2512 90.5129C80.2395 86.6133 76.3145 84.3865 72.4845 85.5394C68.6546 86.6923 66.37 90.7883 67.3817 94.6879C68.3934 98.5875 72.3183 100.814 76.1483 99.6612Z" fill="#455471"/>
<path d="M76.4428 17.8072C78.8325 17.0879 80.2578 14.5323 79.6266 12.0993C78.9953 9.66619 76.5466 8.27702 74.1569 8.99635C71.7673 9.71569 70.3418 12.2711 70.973 14.7042C71.6042 17.1372 74.0532 18.5265 76.4428 17.8072Z" fill="#455471"/>
<path d="M97.4315 99.6923C101.261 98.5393 103.546 94.4435 102.534 90.5439C101.523 86.6443 97.5977 84.4178 93.7677 85.5707C89.9378 86.7236 87.6532 90.8194 88.6649 94.719C89.6766 98.6186 93.6015 100.845 97.4315 99.6923Z" fill="#455471"/>
<path d="M117.846 99.7196C121.675 98.5667 123.96 94.4708 122.949 90.5713C121.937 86.6717 118.012 84.4451 114.182 85.598C110.352 86.7509 108.067 90.8467 109.079 94.7463C110.091 98.6459 114.016 100.872 117.846 99.7196Z" fill="#455471"/>
<path d="M76.8002 17.6136L74.1211 17.6289L73.9671 25.6644L76.6462 25.6491L76.8002 17.6136Z" fill="#455471"/>
<path d="M83.2532 24.0945L67.4709 24.1721C66.1823 24.1785 65.1182 25.2357 65.0942 26.5335C65.0702 27.8312 66.0954 28.8782 67.384 28.8719L83.1663 28.7942C84.4548 28.7879 85.5189 27.7306 85.5429 26.4328C85.5669 25.1351 84.5418 24.0881 83.2532 24.0945Z" fill="#303B52"/>
</svg>
