<svg width="30" height="30" viewBox="0 0 30 30" fill="none" xmlns="http://www.w3.org/2000/svg">
<path d="M12.5849 25.3125H6.09375V3.75H22.6803V12.8726M8.58173 8.72596H20.1923M8.58173 12.0433H16.875M19.088 17.0192V20.3365L21.576 22.8245M24.064 20.3365C24.064 21.6562 23.5397 22.9219 22.6066 23.8551C21.6734 24.7882 20.4077 25.3125 19.088 25.3125C17.7683 25.3125 16.5027 24.7882 15.5695 23.8551C14.6363 22.9219 14.1121 21.6562 14.1121 20.3365C14.1121 19.0168 14.6363 17.7512 15.5695 16.818C16.5027 15.8848 17.7683 15.3606 19.088 15.3606C20.4077 15.3606 21.6734 15.8848 22.6066 16.818C23.5397 17.7512 24.064 19.0168 24.064 20.3365Z" stroke="white" stroke-width="2" stroke-linecap="round" stroke-linejoin="round"/>
</svg>
